# xmcd
#
# Track frame offsets: 
#        150
#        21261
#        34984
#        61475
#        81945
#        117963
#        147701
#        170987
#        188089
#        209834
#
# Disc length: 3263 seconds
#
# Revision: 0
# Processed by: cddbd v1.5.2PL0 Copyright (c) Steve Scherf et al.
# Submitted via: ExactAudioCopy v0.99pb5
#
DISCID=a00cbd0a
DTITLE=J¹kpa Blues Band - Pó³nocna godzina
DYEAR=2008
DGENRE=Blues
TTITLE0=01.W ten niedzielny piekny ranek
TTITLE1=02.Lucille
TTITLE2=03.Blues w³óczêgów
TTITLE3=04.Dziêkuje Ci Baby
TTITLE4=05.Floyd`s Guitar Blues
TTITLE5=06.Bêdzie dobrze!
TTITLE6=07.Pó³nocna godzina
TTITLE7=08.Boom Boom
TTITLE8=09.Budzi mnie blues
TTITLE9=10.Blues 40-tej ulicy
EXTD=
EXTT0=
EXTT1=
EXTT2=
EXTT3=
EXTT4=
EXTT5=
EXTT6=
EXTT7=
EXTT8=
EXTT9=
PLAYORDER=
